<svg width="5" height="5" viewBox="0 0 5 5" fill="none" xmlns="http://www.w3.org/2000/svg">
    <g clip-path="url(#clip0_25:1233)">
    <path d="M2.6951 3.88893L4.92012 1.66387C4.97163 1.61241 5 1.54371 5 1.47046C5 1.39721 4.97163 1.32851 4.92012 1.27705L4.7563 1.11319C4.64956 1.00656 4.47606 1.00656 4.36948 1.11319L2.50104 2.98163L0.630523 1.11111C0.57902 1.05965 0.510362 1.03123 0.437151 1.03123C0.363859 1.03123 0.2952 1.05965 0.243656 1.11111L0.0798769 1.27497C0.0283737 1.32648 -1.59066e-08 1.39513 -1.91085e-08 1.46839C-2.23104e-08 1.54164 0.0283737 1.61034 0.0798769 1.6618L2.30693 3.88893C2.3586 3.94052 2.42758 3.96885 2.50091 3.96869C2.57453 3.96885 2.64347 3.94052 2.6951 3.88893Z" fill="white"/>
    </g>
    <clipPath id="clip0_25:1233">
    <rect width="5" height="5" fill="white" transform="translate(5) rotate(90)"/>
    </clipPath>
</svg>
