<svg width="14" height="14" viewBox="0 0 14 14" fill="none" xmlns="http://www.w3.org/2000/svg">
<path d="M7.00007 0C5.97321 0 5.1377 0.835516 5.1377 1.86238V2.4243H6.10099V1.86238C6.10099 1.36661 6.50444 0.963293 7.00007 0.963293C7.49584 0.963293 7.89932 1.36659 7.89932 1.86238V2.4243H8.86262V1.86238C8.86262 0.835516 8.02696 0 7.00007 0Z" fill="#161F29"/>
<path d="M8.31655 11.7361C8.31655 12.4533 7.73311 13.0367 7.01608 13.0367H6.98398C6.26697 13.0367 5.68351 12.4533 5.68351 11.7361H4.72021C4.72021 12.9845 5.73571 14 6.98398 14H7.01608C8.26435 14 9.27984 12.9845 9.27984 11.7361H8.31655Z" fill="#161F29"/>
<path d="M13.2331 11.556L11.8647 9.42724V6.69483C11.8647 3.98586 9.68235 1.78198 7.00004 1.78198C4.31756 1.78198 2.13536 3.98586 2.13536 6.69483V9.42724L0.767001 11.5558C0.671626 11.704 0.6649 11.8925 0.749337 12.0471C0.833775 12.2017 0.995787 12.298 1.17207 12.298H12.828C13.0043 12.298 13.1663 12.2017 13.2506 12.0473C13.3352 11.8927 13.3284 11.7042 13.2331 11.556ZM2.05426 11.3347L3.02207 9.82911C3.072 9.75156 3.09866 9.661 3.09866 9.56869V6.69483C3.09866 4.51712 4.84882 2.7453 7.00004 2.7453C9.15141 2.7453 10.9014 4.51715 10.9014 6.69483V9.56869C10.9014 9.661 10.9279 9.7514 10.9778 9.82911L11.9456 11.3347H2.05426Z" fill="#161F29"/>
</svg>
