<svg width="14" height="14" viewBox="0 0 14 14" fill="none" xmlns="http://www.w3.org/2000/svg">
<path d="M7.00007 0C5.97321 0 5.1377 0.835516 5.1377 1.86238V2.4243H6.10099V1.86238C6.10099 1.36661 6.50444 0.963293 7.00007 0.963293C7.49584 0.963293 7.89932 1.36659 7.89932 1.86238V2.4243H8.86262V1.86238C8.86262 0.835516 8.02696 0 7.00007 0Z" fill="#B7AEBD"/>
<path d="M8.31655 11.7361C8.31655 12.4532 7.73311 13.0367 7.01608 13.0367H6.98398C6.26697 13.0367 5.68351 12.4532 5.68351 11.7361H4.72021C4.72021 12.9845 5.73571 14 6.98398 14H7.01608C8.26435 14 9.27984 12.9845 9.27984 11.7361H8.31655Z" fill="#B7AEBD"/>
<path d="M13.2331 11.5561L11.8647 9.42735V6.69494C11.8647 3.98597 9.68235 1.78209 7.00004 1.78209C4.31756 1.78209 2.13536 3.98597 2.13536 6.69494V9.42735L0.767001 11.5559C0.671626 11.7041 0.6649 11.8926 0.749337 12.0472C0.833775 12.2018 0.995787 12.2981 1.17207 12.2981H12.828C13.0043 12.2981 13.1663 12.2018 13.2506 12.0474C13.3352 11.8928 13.3284 11.7043 13.2331 11.5561ZM2.05426 11.3348L3.02207 9.82922C3.072 9.75167 3.09866 9.66111 3.09866 9.5688V6.69494C3.09866 4.51723 4.84882 2.74541 7.00004 2.74541C9.15141 2.74541 10.9014 4.51726 10.9014 6.69494V9.5688C10.9014 9.66111 10.9279 9.75151 10.9778 9.82922L11.9456 11.3348H2.05426Z" fill="#B7AEBD"/>
</svg>
