<svg width="13" height="13" viewBox="0 0 13 13" fill="none" xmlns="http://www.w3.org/2000/svg">
<path d="M8.50433 6.34669C9.03726 5.92995 9.42686 5.35729 9.61879 4.70856C9.81073 4.05983 9.79543 3.36738 9.57504 2.72776C9.35465 2.08814 8.94014 1.53324 8.38933 1.14044C7.83852 0.747635 7.17886 0.536514 6.50233 0.536514C5.8258 0.536514 5.16614 0.747635 4.61533 1.14044C4.06452 1.53324 3.65001 2.08814 3.42962 2.72776C3.20923 3.36738 3.19393 4.05983 3.38587 4.70856C3.5778 5.35729 3.9674 5.92995 4.50033 6.34669C3.49346 6.74732 2.62977 7.44051 2.02072 8.3368C1.41167 9.23309 1.08522 10.2913 1.0835 11.375V11.9166C1.0835 12.0603 1.14056 12.1981 1.24215 12.2997C1.34373 12.4012 1.4815 12.4583 1.62516 12.4583H11.3752C11.5188 12.4583 11.6566 12.4012 11.7582 12.2997C11.8598 12.1981 11.9168 12.0603 11.9168 11.9166V11.375C11.9155 10.2918 11.5896 9.23395 10.9814 8.33771C10.3732 7.44148 9.51039 6.748 8.50433 6.34669ZM4.3335 3.79165C4.3335 3.36312 4.46057 2.94422 4.69865 2.58791C4.93672 2.23161 5.27511 1.9539 5.67102 1.78991C6.06692 1.62592 6.50257 1.58301 6.92286 1.66661C7.34315 1.75021 7.72922 1.95657 8.03223 2.25958C8.33524 2.5626 8.5416 2.94866 8.6252 3.36895C8.7088 3.78924 8.66589 4.22489 8.5019 4.6208C8.33791 5.0167 8.06021 5.35509 7.7039 5.59317C7.34759 5.83124 6.92869 5.95831 6.50016 5.95831C5.92553 5.95831 5.37443 5.73004 4.9681 5.32371C4.56177 4.91738 4.3335 4.36628 4.3335 3.79165ZM2.16683 11.375C2.16683 10.2257 2.62338 9.12351 3.43603 8.31085C4.24869 7.49819 5.35089 7.04165 6.50016 7.04165C7.64944 7.04165 8.75164 7.49819 9.56429 8.31085C10.377 9.12351 10.8335 10.2257 10.8335 11.375H2.16683Z" fill="white"/>
</svg>
