<svg width="16" height="12" viewBox="0 0 16 12" fill="none" xmlns="http://www.w3.org/2000/svg">
<rect width="16" height="12" fill="#E31D1C"/>
<path fill-rule="evenodd" clip-rule="evenodd" d="M8.31567 8.63952C7.46832 8.80352 6.55728 8.55741 5.90106 7.90118C4.85102 6.85115 4.85102 5.14871 5.90106 4.09868C6.55728 3.44246 7.46831 3.19634 8.31566 3.36033C7.07227 2.51083 5.36185 2.6379 4.2582 3.74156C3.01093 4.98882 3.01093 7.01104 4.2582 8.25831C5.36186 9.36197 7.07229 9.48904 8.31567 8.63952Z" fill="#F5F8FB"/>
<path d="M9.5 4.5L9.89676 5.45391L10.9266 5.53647L10.142 6.20859L10.3817 7.21353L9.5 6.675L8.61832 7.21353L8.85804 6.20859L8.07342 5.53647L9.10324 5.45391L9.5 4.5Z" fill="#F5F8FB"/>
</svg>
