<svg width="16" height="16" fill="none" xmlns="http://www.w3.org/2000/svg"><g clip-path="url(#clip0_25:1193)"><path d="M13.744 1.168H6.176A2.24 2.24 0 003.904 3.44v1.728H2.256A2.24 2.24 0 00-.016 7.44v6.192c0 .448.272.912.72 1.088.176.096.368.096.544.096.272 0 .544-.096.72-.272l1.904-1.456h5.92a2.25 2.25 0 002.272-2.272V9.184l1.904 1.36c.176.176.448.272.72.272.176 0 .368 0 .544-.096.448-.176.72-.64.72-1.088V3.44c.064-1.28-.928-2.272-2.208-2.272zm-3.472 9.664c0 .272-.176.448-.448.448h-6.48l-1.552 1.088V7.36c0-.272.176-.448.448-.448h7.568c.272 0 .448.176.448.448v3.472h.016zm3.92-2.384L12.656 7.36h-.544c-.096-1.184-1.008-2.176-2.272-2.176H5.728V3.44c0-.272.176-.448.448-.448h7.568c.272 0 .448.176.448.448v5.008z" fill="#fff"/></g><defs><clipPath id="clip0_25:1193"><path fill="#fff" d="M0 0h16v16H0z"/></clipPath></defs></svg>