<svg width="16" height="16" fill="none" xmlns="http://www.w3.org/2000/svg"><path d="M15.136 7.952L8.048.88c-.56-.56-1.28-.88-2-.88H2.416A2.414 2.414 0 000 2.416v3.536c0 .8.32 1.52.88 2.096l7.088 7.072c.56.56 1.296.88 2.016.88s1.456-.32 2.016-.88l3.216-3.216c1.056-.976 1.056-2.816-.08-3.952zm-1.12 2.976L10.8 14.144c-.48.48-1.296.48-1.856 0L1.856 7.072c-.16-.32-.32-.64-.32-1.04V2.496c0-.48.4-.88.88-.88h3.552c.32 0 .64.16.88.4l7.088 7.072c.64.48.64 1.28.08 1.84z" fill="#fff"/><path d="M4.192 5.296a1.04 1.04 0 100-2.08 1.04 1.04 0 000 2.08z" fill="#fff"/></svg>