<svg width="16" height="16" fill="none" xmlns="http://www.w3.org/2000/svg"><path d="M7.872.08C4.64.176 1.584 2.32.464 5.408A7.818 7.818 0 00.016 8.56c.256 3.856 3.488 7.136 7.36 7.36 4.096.24 7.936-2.88 8.544-6.944.592-3.984-2.304-7.824-6.16-8.72A8.386 8.386 0 007.872.08zM9.92 14.272c1.68-1.36 2.72-3.28 2.96-5.44h1.44c0-.08.256 2.88-4.4 5.44zM8 2.256c1.84.96 3.04 2.8 3.36 4.8H4.64c.32-2.08 1.52-3.84 3.36-4.8zm3.36 6.416c-.24 2-1.52 3.84-3.36 4.8-1.84-.96-3.04-2.8-3.36-4.8h6.72zm2.96-1.616h-1.36c-.16-1.84-1.04-3.6-2.32-4.88 1.92.88 3.36 2.72 3.68 4.88zm-8.88-4.88c-1.28 1.28-2.16 3.04-2.32 4.88H1.68c.32-2.16 1.76-4 3.76-4.88zM1.68 8.672h1.44c.24 2.16 1.28 4.08 2.96 5.44a6.356 6.356 0 01-4.4-5.44z" fill="#fff"/></svg>