<svg width="16" height="16" fill="none" xmlns="http://www.w3.org/2000/svg"><path fill-rule="evenodd" clip-rule="evenodd" d="M13.255 5.687c.05.093.078.2.078.313v6a2.666 2.666 0 01-2.667 2.667H3.333A.667.667 0 012.666 14V2c0-.368.3-.667.667-.667h5.333c.114 0 .22.028.314.078l.002.002c.052.027.1.062.145.104l.01.012 4 4 .012.011a.682.682 0 01.106.145v.002zM8 2.667H4v10.666h6.666c.737 0 1.334-.596 1.334-1.333V6.667H8.666A.667.667 0 018 6V2.667zM6.667 12h2.666a.667.667 0 000-1.333H6.666a.667.667 0 000 1.333zM6 9.333h4A.667.667 0 0010 8H6a.667.667 0 000 1.333zm5.057-4L9.333 3.61v1.724h1.724z" fill="#fff"/></svg>