<svg width="16" height="16" fill="none" xmlns="http://www.w3.org/2000/svg"><path d="M8 0a.625.625 0 00-.625.625v1.25a.625.625 0 101.25 0V.625A.625.625 0 008 0zM5.5 0a.625.625 0 00-.625.625v1.772a.625.625 0 101.25 0V.625A.625.625 0 005.5 0zm5.625.625a.625.625 0 10-1.25 0v1.772a.625.625 0 101.25 0V.625zM6.851 9.378a1.622 1.622 0 002.299 0l.353-.354a1.622 1.622 0 000-2.299l-.354-.353A1.614 1.614 0 008 5.896c-.434 0-.842.17-1.149.476l-.354.354a1.614 1.614 0 00-.476 1.149c0 .434.17.842.476 1.15l.354.353zm.53-1.768l.354-.354a.372.372 0 01.53 0l.354.354a.372.372 0 010 .53l-.354.354a.372.372 0 01-.53 0L7.38 8.14a.372.372 0 010-.53z" fill="#fff"/><path d="M13.731 9.869a.625.625 0 10-.342 1.202c.802.228 1.361.97 1.361 1.804a1.877 1.877 0 01-1.875 1.875h-9.75a1.877 1.877 0 01-1.875-1.875c0-1.034.841-1.875 1.875-1.875h1.816A4.36 4.36 0 008 12.25a4.38 4.38 0 004.375-4.375A4.38 4.38 0 008 3.5a4.38 4.38 0 00-4.375 4.375c0 .67.152 1.306.423 1.875h-.923A3.129 3.129 0 000 12.875 3.129 3.129 0 003.125 16h9.75A3.129 3.129 0 0016 12.875c0-1.39-.933-2.626-2.269-3.006zM8 4.75a3.129 3.129 0 013.125 3.125A3.129 3.129 0 018 11a3.129 3.129 0 01-3.125-3.125A3.129 3.129 0 018 4.75z" fill="#fff"/><path d="M3.625 12.875c0 .345.28.625.625.625h7.5a.625.625 0 100-1.25h-7.5a.625.625 0 00-.625.625z" fill="#fff"/></svg>