<svg width="16" height="16" fill="none" xmlns="http://www.w3.org/2000/svg"><g clip-path="url(#clip0_25:1250)" fill="#fff"><path d="M15.856 14.208L14.88 10.8c.656-1.456.816-3.088.48-4.704-.56-2.848-2.832-5.2-5.6-5.856-2.592-.656-5.2 0-7.152 1.872C.592 3.744-.224 6.336.176 8.928c.576 3.248 3.168 5.84 6.416 6.336 1.632.24 3.248 0 4.704-.736l2.608 1.312c.16.08.4.16.656.16.32 0 .656-.08.896-.32.4-.416.56-.976.4-1.472zm-3.824-1.136c-.24-.08-.48-.16-.736-.16-.24 0-.48.08-.736.16-1.136.576-2.432.816-3.728.576-2.512-.4-4.624-2.432-5.04-4.96-.32-2.032.32-4.144 1.872-5.52 1.552-1.376 3.568-1.952 5.68-1.456 2.192.576 3.984 2.352 4.464 4.624.24 1.296.16 2.592-.4 3.728-.16.32-.16.736-.08 1.136l.912 2.928-2.208-1.056z"/><path d="M11.984 4.832c-.416-.416-1.104-.672-1.696-.672-.672 0-1.264.256-1.696.672L8 5.424l-.592-.592c-.416-.416-1.104-.672-1.696-.672h-.016c-1.632 0-2.832 1.632-2.336 3.184.112.352.304.688.576.96l3.136 3.136c.256.256.592.416.928.416.336 0 .672-.176.928-.416.528-.528 1.072-1.04 1.584-1.568.384-.384.768-.784 1.152-1.168.352-.352.72-.656.912-1.12.176-.416.192-.896.096-1.328-.096-.496-.336-1.072-.688-1.424zm-1.216 2.272c-.096.176-.256.32-.4.464A143.26 143.26 0 007.904 10L6.416 8.512l-.752-.752c-.256-.256-.608-.512-.752-.832-.176-.352-.032-.832.304-1.04a.684.684 0 01.464-.096c.224.032.336.208.496.368l.368.368.912.912.368.368c.016.016 1.616-1.68 1.808-1.824a.834.834 0 01.496-.192c.24 0 .464.128.592.32a.912.912 0 01.096.88c0 .032-.016.064-.048.112z"/></g><defs><clipPath id="clip0_25:1250"><path fill="#fff" d="M0 0h16v16H0z"/></clipPath></defs></svg>