<svg width="16" height="16" fill="none" xmlns="http://www.w3.org/2000/svg"><path d="M.848 2.96h2.624v.512c0 .512.336.848.848.848s.848-.336.848-.848V2.96l9.968-.016c.512 0 .848-.336.848-.848s-.336-.848-.848-.848l-9.872.016V.848C5.264.336 4.928 0 4.416 0s-.848.336-.848.848v.512H.848c-.512 0-.848.336-.848.848s.432.752.848.752zm14.304 4.144h-2.336v-.512c0-.512-.336-.848-.848-.848s-.848.336-.848.848v.512H.848c-.512 0-.848.336-.848.848s.336.848.848.848H11.12v.512c0 .512.336.848.848.848s.848-.336.848-.848V8.8h2.336c.512 0 .848-.336.848-.848a.853.853 0 00-.848-.848zm0 5.856H7.888v-.512c0-.512-.336-.848-.848-.848s-.848.336-.848.848v.512H.848c-.512 0-.848.336-.848.832 0 .496.336.848.848.848h5.344v.512c0 .512.336.848.848.848s.848-.336.848-.848v-.512h7.264c.512 0 .848-.336.848-.848s-.432-.832-.848-.832z" fill="#fff"/></svg>