<svg width="16" height="16" fill="none" xmlns="http://www.w3.org/2000/svg"><path d="M8 5.09A2.912 2.912 0 005.09 8 2.912 2.912 0 008 10.91 2.912 2.912 0 0010.909 8a2.912 2.912 0 00-2.91-2.91zm0 4.365A1.456 1.456 0 016.545 8c0-.802.653-1.455 1.455-1.455a1.456 1.456 0 010 2.91z" fill="#fff"/><path d="M15.506 9.83l-1.698-1.49a5.903 5.903 0 000-.678l1.698-1.491a.727.727 0 00.15-.91L14.2 2.74a.727.727 0 00-.863-.325l-2.14.724a5.822 5.822 0 00-.587-.34L10.168.585A.727.727 0 009.455 0h-2.91a.727.727 0 00-.713.585L5.39 2.799a5.82 5.82 0 00-.587.34l-2.14-.724a.727.727 0 00-.863.325L.345 5.26c-.174.3-.111.68.15.91l1.696 1.49a5.896 5.896 0 000 .678L.494 9.83a.727.727 0 00-.15.91L1.8 13.26c.174.3.535.436.863.325l2.14-.724c.19.125.386.238.587.34l.443 2.214c.068.34.367.585.714.585h2.909a.727.727 0 00.713-.585l.443-2.214c.201-.102.398-.215.587-.34l2.14.724a.727.727 0 00.863-.325l1.454-2.52a.727.727 0 00-.15-.91zm-2.267 2.186l-1.926-.652a.728.728 0 00-.673.11 4.363 4.363 0 01-.952.551.727.727 0 00-.431.528l-.399 1.992H7.142l-.399-1.992a.727.727 0 00-.431-.528 4.357 4.357 0 01-.952-.55.727.727 0 00-.673-.11l-1.926.651-.859-1.487L3.43 9.187a.727.727 0 00.242-.637 4.429 4.429 0 010-1.1.727.727 0 00-.242-.637L1.902 5.47l.859-1.487 1.926.652a.728.728 0 00.673-.11c.294-.224.614-.41.952-.551a.727.727 0 00.431-.528l.399-1.992h1.716l.399 1.992a.727.727 0 00.431.528c.338.142.658.327.952.55a.727.727 0 00.673.11l1.926-.65.859 1.486-1.527 1.342a.727.727 0 00-.242.636 4.452 4.452 0 010 1.102c-.03.239.06.477.242.637l1.527 1.341-.859 1.487z" fill="#fff"/></svg>