<svg width="8" height="8" viewBox="0 0 8 8" fill="none" xmlns="http://www.w3.org/2000/svg">
<g clip-path="url(#clip0_31:8950)">
<path d="M4.31216 6.22231L7.8722 2.66221C7.9546 2.57987 8 2.46995 8 2.35275C8 2.23555 7.9546 2.12563 7.8722 2.04329L7.61008 1.78111C7.43929 1.61051 7.1617 1.61051 6.99116 1.78111L4.00166 4.77062L1.00884 1.7778C0.926432 1.69546 0.816579 1.64999 0.699441 1.64999C0.582174 1.64999 0.472322 1.69546 0.389851 1.7778L0.127804 2.03997C0.0453982 2.12238 4.51387e-07 2.23223 4.46264e-07 2.34943C4.41141e-07 2.46664 0.0453982 2.57655 0.127804 2.6589L3.69109 6.22231C3.77376 6.30485 3.88413 6.35018 4.00146 6.34992C4.11925 6.35018 4.22956 6.30485 4.31216 6.22231Z" fill="white"/>
</g>
<defs>
<clipPath id="clip0_31:8950">
<rect width="8" height="8" fill="white" transform="translate(8) rotate(90)"/>
</clipPath>
</defs>
</svg>
