<svg width="25" height="25" fill="none" xmlns="http://www.w3.org/2000/svg"><path d="M5.209 2.083a3.141 3.141 0 00-3.125 3.125v8.334a3.142 3.142 0 003.125 3.125h3.127v3.127a3.136 3.136 0 003.121 3.123h8.339a3.136 3.136 0 003.12-3.123v-8.336a3.135 3.135 0 00-3.12-3.12h-3.128v-3.13a3.142 3.142 0 00-3.125-3.125H5.209zm0 2.084h8.334c.595 0 1.042.446 1.042 1.041v3.13h-3.128a3.135 3.135 0 00-3.12 3.12v3.125H5.208a1.017 1.017 0 01-1.042-1.041V5.208c0-.595.447-1.041 1.042-1.041zm6.248 6.246h8.339c.595 0 1.037.45 1.037 1.045v8.336c0 .595-.442 1.04-1.037 1.04h-8.339a1.012 1.012 0 01-1.037-1.04v-8.336c0-.595.442-1.045 1.037-1.045z" fill="#fff"/></svg>