<svg width="54" height="54" fill="none" xmlns="http://www.w3.org/2000/svg"><path d="M54 12.762V8.016a4.751 4.751 0 00-4.746-4.746h-38.18a4.751 4.751 0 00-4.746 4.746v4.746l3.397 3.164h.8L6.328 19.09H4.746A4.751 4.751 0 000 23.836v22.148a4.751 4.751 0 004.746 4.746h38.18a4.751 4.751 0 004.746-4.746V34.91l3.164-2.797V20.671a4.751 4.751 0 00-4.746-4.746h3.214L54 12.762z" fill="url(#paint0_linear_25:1291)"/><path d="M7.91 28.582h9.598a1.581 1.581 0 100-3.164H7.91a1.581 1.581 0 100 3.164zm15.926 3.164H7.91a1.581 1.581 0 100 3.164h15.926a1.581 1.581 0 100-3.164zM6.328 12.762v6.328h36.598a4.751 4.751 0 014.746 4.746V34.91h1.582A4.751 4.751 0 0054 30.164V12.762H6.328z" fill="url(#paint1_linear_25:1291)"/><defs><linearGradient id="paint0_linear_25:1291" x1="27" y1="50.73" x2="27" y2="3.27" gradientUnits="userSpaceOnUse"><stop stop-color="#A93AFF"/><stop offset="1" stop-color="#FF81FF"/></linearGradient><linearGradient id="paint1_linear_25:1291" x1="30.164" y1="42.735" x2="30.164" y2="11.513" gradientUnits="userSpaceOnUse"><stop stop-color="#FFBEF9"/><stop offset="1" stop-color="#FFF1FF"/></linearGradient></defs></svg>