<svg width="14" height="14" fill="none" xmlns="http://www.w3.org/2000/svg"><g clip-path="url(#clip0_25:463)"><path d="M13.88 3.366c.35-.35-.093-1.36-.99-2.257-.886-.886-1.88-1.327-2.242-1L10.64.104 5.672 4.565a2.331 2.331 0 00-3.182.101.787.787 0 000 1.112l2.254 2.254L.112 13.26a.444.444 0 00.627.626L5.96 9.25l.224.224 1.161 1.161.868.868a.786.786 0 001.11 0 2.332 2.332 0 00.102-3.183l4.439-4.943c.004-.004.012-.005.016-.01z" fill="#472E75"/></g><defs><clipPath id="clip0_25:463"><path fill="#fff" d="M0 0h14v14H0z"/></clipPath></defs></svg>