<svg width="14" height="14" fill="none" xmlns="http://www.w3.org/2000/svg"><path d="M7 0a1.865 1.865 0 00-1.862 1.862v.562H6.1v-.562a.9.9 0 011.798 0v.562h.964v-.562A1.865 1.865 0 007 0zm1.317 11.736c0 .717-.584 1.3-1.3 1.3h-.033c-.717 0-1.3-.583-1.3-1.3H4.72A2.266 2.266 0 006.984 14h.032a2.266 2.266 0 002.264-2.264h-.963z" fill="#B7AEBD"/><path d="M13.233 11.556l-1.368-2.129V6.695c0-2.709-2.183-4.913-4.865-4.913-2.682 0-4.865 2.204-4.865 4.913v2.732L.767 11.556a.481.481 0 00.405.742h11.656a.481.481 0 00.405-.742zm-11.179-.221l.968-1.506a.482.482 0 00.077-.26V6.695c0-2.178 1.75-3.95 3.901-3.95s3.901 1.772 3.901 3.95v2.874a.48.48 0 00.077.26l.968 1.506H2.054z" fill="#B7AEBD"/></svg>