<svg width="20" height="20" viewBox="0 0 20 20" fill="none" xmlns="http://www.w3.org/2000/svg">
<g clip-path="url(#clip0_10:2419)">
<path d="M19.0234 7.4492C18.4844 7.4492 18.0469 7.8867 18.0469 8.42577V13.7578C18.0469 14.7656 17.2266 15.5859 16.2188 15.5859H3.78125C2.77344 15.5859 1.95312 14.7656 1.95312 13.7578V5.53123L8.57031 11.6953C8.97266 12.0664 9.48438 12.2539 10 12.2539C10.5156 12.2539 11.0273 12.0664 11.4297 11.6953L19.6914 3.99998C19.9844 3.72655 20.082 3.30077 19.9336 2.92967C19.7852 2.55467 19.4258 2.31248 19.0234 2.31248H0.976562C0.574219 2.30858 0.214844 2.55467 0.0664062 2.92967C0.0234375 3.04686 0 3.16795 0 3.28514V3.28905V13.7539C0 15.8398 1.69531 17.5351 3.78125 17.5351H16.2188C18.3047 17.5351 20 15.8398 20 13.7539V8.42577C20 7.8828 19.5625 7.4492 19.0234 7.4492ZM16.543 4.2617L10.0977 10.2656C10.043 10.3164 9.95703 10.3164 9.90234 10.2656L3.45703 4.2617H16.543Z" fill="white"/>
</g>
<defs>
<clipPath id="clip0_10:2419">
<rect width="20" height="20" fill="white"/>
</clipPath>
</defs>
</svg>
