<svg width="21" height="21" viewBox="0 0 21 21" fill="none" xmlns="http://www.w3.org/2000/svg">
<g clip-path="url(#clip0_10:2474)">
<path d="M18.7746 8.87908C20.9476 5.93717 20.4657 5.88206 21 4.96289H16.8358C16.8358 4.96289 16.5399 5.99036 16.4495 6.17429C15.6497 7.80098 13.8558 10.2417 12.7708 10.4912C11.7024 10.737 11.8442 8.21226 11.9101 7.11861C11.9721 6.10492 11.9615 5.7502 11.9317 5.57508C11.8881 5.31921 11.6734 5.13256 11.4158 5.10004C10.8847 5.03275 9.92097 4.93758 8.84175 4.98756L7.87628 5.01961C8.25696 5.87116 8.51411 5.61017 8.6543 6.59534C8.81259 7.74875 8.75027 10.5553 7.61433 10.5553C5.7933 10.5553 3.74924 5.0861 3.6842 4.96289H0L0.337097 5.80643C3.0539 12.6077 6.45179 15.7577 11.1008 16.0196L11.7058 16.0371L11.7491 15.4496C11.8144 14.5423 12.2696 13.2362 13.0769 13.2362C14.2698 13.2362 14.6144 13.5835 15.401 14.5556C16.1574 15.4876 16.6786 16.0371 17.8992 16.0371H21L20.5578 15.1479C19.8673 13.7615 18.4822 12.5731 17.9413 11.8836C17.7453 11.6241 17.5524 11.2138 17.7521 10.7174C17.9153 10.2851 18.4014 9.38361 18.7746 8.87908Z" fill="white"/>
</g>
<defs>
<clipPath id="clip0_10:2474">
<rect width="21" height="21" fill="white"/>
</clipPath>
</defs>
</svg>
