<svg width="16" height="16" viewBox="0 0 16 16" fill="none" xmlns="http://www.w3.org/2000/svg">
<g clip-path="url(#clip0_25:1193)">
<path d="M13.7439 1.16803H6.17589C4.89589 1.16803 3.90389 2.16003 3.90389 3.44003V5.16803H2.25589C0.975887 5.16803 -0.0161133 6.16003 -0.0161133 7.44003V13.632C-0.0161133 14.08 0.255887 14.544 0.703887 14.72C0.879887 14.816 1.07189 14.816 1.24789 14.816C1.51989 14.816 1.79189 14.72 1.96789 14.544L3.87189 13.088H9.79189C11.0719 13.088 12.0639 12.08 12.0639 10.816V9.18403L13.9679 10.544C14.1439 10.72 14.4159 10.816 14.6879 10.816C14.8639 10.816 15.0559 10.816 15.2319 10.72C15.6799 10.544 15.9519 10.08 15.9519 9.63203V3.44003C16.0159 2.16003 15.0239 1.16803 13.7439 1.16803ZM10.2719 10.832C10.2719 11.104 10.0959 11.28 9.82389 11.28H3.34389L1.79189 12.368V7.36003C1.79189 7.08803 1.96789 6.91203 2.23989 6.91203H9.80789C10.0799 6.91203 10.2559 7.08803 10.2559 7.36003V10.832H10.2719ZM14.1919 8.44803L12.6559 7.36003H12.1119C12.0159 6.17603 11.1039 5.18403 9.83989 5.18403H5.72789V3.44003C5.72789 3.16803 5.90389 2.99203 6.17589 2.99203H13.7439C14.0159 2.99203 14.1919 3.16803 14.1919 3.44003V8.44803Z" fill="white"/>
</g>
<defs>
<clipPath id="clip0_25:1193">
<rect width="16" height="16" fill="white"/>
</clipPath>
</defs>
</svg>
