<svg width="16" height="16" viewBox="0 0 16 16" fill="none" xmlns="http://www.w3.org/2000/svg">
<path d="M13.3332 2.66669H2.6665C2.13607 2.66669 1.62736 2.8774 1.25229 3.25247C0.877218 3.62755 0.666504 4.13625 0.666504 4.66669V11.3334C0.666504 11.8638 0.877218 12.3725 1.25229 12.7476C1.62736 13.1226 2.13607 13.3334 2.6665 13.3334H13.3332C13.8636 13.3334 14.3723 13.1226 14.7474 12.7476C15.1225 12.3725 15.3332 11.8638 15.3332 11.3334V4.66669C15.3332 4.13625 15.1225 3.62755 14.7474 3.25247C14.3723 2.8774 13.8636 2.66669 13.3332 2.66669ZM2.6665 4.00002H13.3332C13.51 4.00002 13.6796 4.07026 13.8046 4.19528C13.9296 4.32031 13.9998 4.48988 13.9998 4.66669V5.33335H1.99984V4.66669C1.99984 4.48988 2.07008 4.32031 2.1951 4.19528C2.32012 4.07026 2.48969 4.00002 2.6665 4.00002ZM13.3332 12H2.6665C2.48969 12 2.32012 11.9298 2.1951 11.8048C2.07008 11.6797 1.99984 11.5102 1.99984 11.3334V8.00002H13.9998V11.3334C13.9998 11.5102 13.9296 11.6797 13.8046 11.8048C13.6796 11.9298 13.51 12 13.3332 12Z" fill="white"/>
</svg>
