<svg width="16" height="16" viewBox="0 0 16 16" fill="none" xmlns="http://www.w3.org/2000/svg">
<path d="M15.136 7.952L8.048 0.88C7.488 0.32 6.768 0 6.048 0H2.416C1.04 0 0 1.12 0 2.416V5.952C0 6.752 0.32 7.472 0.88 8.048L7.968 15.12C8.528 15.68 9.264 16 9.984 16C10.704 16 11.44 15.68 12 15.12L15.216 11.904C16.272 10.928 16.272 9.088 15.136 7.952ZM14.016 10.928L10.8 14.144C10.32 14.624 9.504 14.624 8.944 14.144L1.856 7.072C1.696 6.752 1.536 6.432 1.536 6.032V2.496C1.536 2.016 1.936 1.616 2.416 1.616H5.968C6.288 1.616 6.608 1.776 6.848 2.016L13.936 9.088C14.576 9.568 14.576 10.368 14.016 10.928Z" fill="white"/>
<path d="M4.19186 5.296C4.76623 5.296 5.23186 4.83037 5.23186 4.256C5.23186 3.68163 4.76623 3.216 4.19186 3.216C3.61748 3.216 3.15186 3.68163 3.15186 4.256C3.15186 4.83037 3.61748 5.296 4.19186 5.296Z" fill="white"/>
</svg>
