<svg width="16" height="16" viewBox="0 0 16 16" fill="none" xmlns="http://www.w3.org/2000/svg">
<path d="M7.87218 0.0799919C4.64018 0.175992 1.58418 2.31999 0.464176 5.40799C0.0961763 6.41599 -0.0478237 7.48799 0.0161763 8.55999C0.272176 12.416 3.50418 15.696 7.37618 15.92C11.4722 16.16 15.3122 13.04 15.9202 8.97599C16.5122 4.99199 13.6162 1.15199 9.76018 0.255992C9.13618 0.127992 8.49618 0.0639919 7.87218 0.0799919ZM9.92018 14.272C11.6002 12.912 12.6402 10.992 12.8802 8.83199H14.3202C14.3202 8.75199 14.5762 11.712 9.92018 14.272ZM8.00018 2.25599C9.84018 3.21599 11.0402 5.05599 11.3602 7.05599H4.64018C4.96018 4.97599 6.16018 3.21599 8.00018 2.25599ZM11.3602 8.67199C11.1202 10.672 9.84018 12.512 8.00018 13.472C6.16018 12.512 4.96018 10.672 4.64018 8.67199H11.3602ZM14.3202 7.05599H12.9602C12.8002 5.21599 11.9202 3.45599 10.6402 2.17599C12.5602 3.05599 14.0002 4.89599 14.3202 7.05599ZM5.44018 2.17599C4.16018 3.45599 3.28018 5.21599 3.12018 7.05599H1.68018C2.00018 4.89599 3.44018 3.05599 5.44018 2.17599ZM1.68018 8.67199H3.12018C3.36018 10.832 4.40018 12.752 6.08018 14.112C3.60018 13.312 1.92018 11.152 1.68018 8.67199Z" fill="white"/>
</svg>
