<svg width="16" height="16" viewBox="0 0 16 16" fill="none" xmlns="http://www.w3.org/2000/svg">
<path fill-rule="evenodd" clip-rule="evenodd" d="M13.2552 5.68665C13.3052 5.77998 13.3332 5.88664 13.3332 5.99998V12C13.3332 13.4726 12.1398 14.6666 10.6665 14.6666H3.33317C2.96517 14.6666 2.6665 14.368 2.6665 14V1.99998C2.6665 1.63198 2.96517 1.33331 3.33317 1.33331H8.6665C8.77984 1.33331 8.88651 1.36131 8.97984 1.41131L8.98183 1.41265C9.03383 1.43998 9.08251 1.47531 9.12651 1.51731L9.13784 1.52865L13.1378 5.52864L13.1492 5.53998C13.1918 5.58465 13.2265 5.63331 13.2545 5.68464L13.2552 5.68665ZM7.99984 2.66665H3.99984V13.3333H10.6665C11.4032 13.3333 11.9998 12.7366 11.9998 12V6.66664H8.6665C8.2985 6.66664 7.99984 6.36798 7.99984 5.99998V2.66665ZM6.6665 12H9.33317C9.70117 12 9.99984 11.7013 9.99984 11.3333C9.99984 10.9653 9.70117 10.6666 9.33317 10.6666H6.6665C6.2985 10.6666 5.99984 10.9653 5.99984 11.3333C5.99984 11.7013 6.2985 12 6.6665 12ZM5.99984 9.33331H9.99984C10.3678 9.33331 10.6665 9.03464 10.6665 8.66664C10.6665 8.29864 10.3678 7.99998 9.99984 7.99998H5.99984C5.63184 7.99998 5.33317 8.29864 5.33317 8.66664C5.33317 9.03464 5.63184 9.33331 5.99984 9.33331ZM11.0572 5.33331L9.33317 3.60931V5.33331H11.0572Z" fill="white"/>
</svg>
