<svg width="16" height="16" viewBox="0 0 16 16" fill="none" xmlns="http://www.w3.org/2000/svg">
<path d="M8 0C7.65481 0 7.375 0.279813 7.375 0.625V1.875C7.375 2.22019 7.65481 2.5 8 2.5C8.34519 2.5 8.625 2.22019 8.625 1.875V0.625C8.625 0.279813 8.34519 0 8 0Z" fill="white"/>
<path d="M5.5 0C5.15481 0 4.875 0.279813 4.875 0.625V2.39697C4.875 2.74216 5.15481 3.02197 5.5 3.02197C5.84519 3.02197 6.125 2.74216 6.125 2.39697V0.625C6.125 0.279813 5.84519 0 5.5 0Z" fill="white"/>
<path d="M11.125 0.625C11.125 0.279813 10.8452 0 10.5 0C10.1548 0 9.875 0.279813 9.875 0.625V2.39697C9.875 2.74216 10.1548 3.02197 10.5 3.02197C10.8452 3.02197 11.125 2.74216 11.125 2.39697V0.625Z" fill="white"/>
<path d="M6.85098 9.37758C7.15792 9.68452 7.56598 9.85355 8.00005 9.85355C8.43411 9.85355 8.84217 9.68452 9.14911 9.37758L9.50264 9.02405C9.80958 8.71711 9.97861 8.30905 9.97861 7.87499C9.97861 7.44092 9.80958 7.03286 9.50264 6.72592L9.14911 6.37239C8.84217 6.06545 8.43411 5.89642 8.00005 5.89642C7.56598 5.89642 7.15792 6.06545 6.85098 6.37239L6.49745 6.72592C6.19052 7.03286 6.02148 7.44092 6.02148 7.87499C6.02148 8.30905 6.19052 8.71711 6.49745 9.02405L6.85098 9.37758ZM7.38133 7.60983L7.73489 7.2563C7.8057 7.18545 7.89989 7.14645 8.00005 7.14645C8.1002 7.14645 8.19439 7.18549 8.2652 7.2563L8.61873 7.60986C8.68958 7.68067 8.72858 7.77486 8.72858 7.87502C8.72858 7.97517 8.68955 8.06936 8.61873 8.14017L8.26517 8.4937C8.19436 8.56455 8.10017 8.60355 8.00002 8.60355C7.89986 8.60355 7.80567 8.56452 7.73486 8.4937L7.38133 8.14014C7.31048 8.06933 7.27148 7.97514 7.27148 7.87499C7.27148 7.77483 7.31052 7.68064 7.38133 7.60983Z" fill="white"/>
<path d="M13.7314 9.86897C13.3993 9.77447 13.0537 9.96712 12.9593 10.2991C12.8648 10.6312 13.0574 10.9768 13.3894 11.0713C14.1905 11.2992 14.75 12.0409 14.75 12.875C14.75 13.9089 13.9089 14.75 12.875 14.75H3.125C2.09113 14.75 1.25 13.9089 1.25 12.875C1.25 11.8411 2.09113 11 3.125 11H4.9415C5.73091 11.7727 6.81069 12.25 8 12.25C10.4124 12.25 12.375 10.2874 12.375 7.875C12.375 5.46263 10.4124 3.5 8 3.5C5.58763 3.5 3.625 5.46263 3.625 7.875C3.625 8.54562 3.77684 9.18138 4.04769 9.75H3.125C1.40188 9.75 0 11.1519 0 12.875C0 14.5981 1.40188 16 3.125 16H12.875C14.5981 16 16 14.5981 16 12.875C16 11.485 15.0671 10.2489 13.7314 9.86897ZM8 4.75C9.72313 4.75 11.125 6.15188 11.125 7.875C11.125 9.59812 9.72313 11 8 11C6.27688 11 4.875 9.59812 4.875 7.875C4.875 6.15188 6.27688 4.75 8 4.75Z" fill="white"/>
<path d="M3.625 12.875C3.625 13.2202 3.90481 13.5 4.25 13.5H11.75C12.0952 13.5 12.375 13.2202 12.375 12.875C12.375 12.5298 12.0952 12.25 11.75 12.25H8H4.25C3.90481 12.25 3.625 12.5298 3.625 12.875Z" fill="white"/>
</svg>
