<svg width="16" height="16" viewBox="0 0 16 16" fill="none" xmlns="http://www.w3.org/2000/svg">
<g clip-path="url(#clip0_25:1250)">
<path d="M15.8559 14.208L14.8799 10.8C15.5359 9.34401 15.6959 7.71201 15.3599 6.09601C14.7999 3.24801 12.5279 0.896014 9.7599 0.240014C7.1679 -0.415986 4.5599 0.240014 2.6079 2.11201C0.591904 3.74401 -0.224096 6.33601 0.175904 8.92801C0.751904 12.176 3.3439 14.768 6.5919 15.264C8.2239 15.504 9.8399 15.264 11.2959 14.528L13.9039 15.84C14.0639 15.92 14.3039 16 14.5599 16C14.8799 16 15.2159 15.92 15.4559 15.68C15.8559 15.264 16.0159 14.704 15.8559 14.208ZM12.0319 13.072C11.7919 12.992 11.5519 12.912 11.2959 12.912C11.0559 12.912 10.8159 12.992 10.5599 13.072C9.4239 13.648 8.1279 13.888 6.8319 13.648C4.3199 13.248 2.2079 11.216 1.7919 8.68801C1.4719 6.65601 2.1119 4.54401 3.6639 3.16801C5.2159 1.79201 7.2319 1.21601 9.3439 1.71201C11.5359 2.28801 13.3279 4.06401 13.8079 6.33601C14.0479 7.63201 13.9679 8.92801 13.4079 10.064C13.2479 10.384 13.2479 10.8 13.3279 11.2L14.2399 14.128L12.0319 13.072Z" fill="white"/>
<path d="M11.9842 4.83197C11.5682 4.41597 10.8802 4.15997 10.2882 4.15997C9.61618 4.15997 9.02418 4.41597 8.59218 4.83197L8.00018 5.42398L7.40818 4.83197C6.99218 4.41597 6.30418 4.15997 5.71218 4.15997H5.69618C4.06418 4.15997 2.86418 5.79198 3.36018 7.34398C3.47218 7.69598 3.66418 8.03198 3.93618 8.30398L7.07218 11.44C7.32818 11.696 7.66418 11.856 8.00018 11.856C8.33618 11.856 8.67218 11.68 8.92818 11.44C9.45618 10.912 10.0002 10.4 10.5122 9.87198C10.8962 9.48798 11.2802 9.08798 11.6642 8.70398C12.0162 8.35198 12.3842 8.04798 12.5762 7.58398C12.7522 7.16798 12.7682 6.68798 12.6722 6.25598C12.5762 5.75998 12.3362 5.18398 11.9842 4.83197ZM10.7682 7.10398C10.6722 7.27998 10.5122 7.42398 10.3682 7.56798C9.84018 8.07998 9.31218 8.59198 8.80018 9.10398C8.75218 9.15198 7.90418 9.99998 7.90418 9.99998C7.40818 9.50398 6.91218 9.00798 6.41618 8.51198C6.16018 8.25598 5.92018 8.01598 5.66418 7.75998C5.40818 7.50398 5.05618 7.24798 4.91218 6.92798C4.73618 6.57598 4.88018 6.09598 5.21618 5.88798C5.36018 5.80798 5.52018 5.75998 5.68018 5.79198C5.90418 5.82398 6.01618 5.99998 6.17618 6.15998L6.54418 6.52798L7.45618 7.43998L7.82418 7.80798C7.84018 7.82398 9.44018 6.12798 9.63218 5.98398C9.77618 5.87198 9.95218 5.79198 10.1282 5.79198C10.3682 5.79198 10.5922 5.91998 10.7202 6.11198C10.8962 6.36798 10.9442 6.70398 10.8162 6.99198C10.8162 7.02398 10.8002 7.05598 10.7682 7.10398Z" fill="white"/>
</g>
<defs>
<clipPath id="clip0_25:1250">
<rect width="16" height="16" fill="white"/>
</clipPath>
</defs>
</svg>
