<svg width="16" height="16" viewBox="0 0 16 16" fill="none" xmlns="http://www.w3.org/2000/svg">
<path d="M0.848 2.96H3.472V3.472C3.472 3.984 3.808 4.32 4.32 4.32C4.832 4.32 5.168 3.984 5.168 3.472V2.96L15.136 2.944C15.648 2.944 15.984 2.608 15.984 2.096C15.984 1.584 15.648 1.248 15.136 1.248L5.264 1.264V0.848C5.264 0.336 4.928 0 4.416 0C3.904 0 3.568 0.336 3.568 0.848V1.36H0.848C0.336 1.36 0 1.696 0 2.208C0 2.72 0.432 2.96 0.848 2.96Z" fill="white"/>
<path d="M15.152 7.10401H12.816V6.59202C12.816 6.08002 12.48 5.74402 11.968 5.74402C11.456 5.74402 11.12 6.08002 11.12 6.59202V7.10401H0.848C0.336 7.10401 0 7.44001 0 7.95201C0 8.46401 0.336 8.80001 0.848 8.80001H11.12V9.31201C11.12 9.82401 11.456 10.16 11.968 10.16C12.48 10.16 12.816 9.82401 12.816 9.31201V8.80001H15.152C15.664 8.80001 16 8.46401 16 7.95201C16 7.44001 15.568 7.10401 15.152 7.10401Z" fill="white"/>
<path d="M15.152 12.96H7.888V12.448C7.888 11.936 7.552 11.6 7.04 11.6C6.528 11.6 6.192 11.936 6.192 12.448V12.96H0.848C0.336 12.96 0 13.296 0 13.792C0 14.288 0.336 14.64 0.848 14.64H6.192V15.152C6.192 15.6641 6.528 16.0001 7.04 16.0001C7.552 16.0001 7.888 15.6641 7.888 15.152V14.64H15.152C15.664 14.64 16 14.304 16 13.792C16 13.28 15.568 12.96 15.152 12.96Z" fill="white"/>
</svg>
