<svg width="16" height="16" viewBox="0 0 16 16" fill="none" xmlns="http://www.w3.org/2000/svg">
<path d="M7.99991 5.09088C6.39584 5.09088 5.09082 6.3959 5.09082 7.99997C5.09082 9.60405 6.39584 10.9091 7.99991 10.9091C9.60398 10.9091 10.909 9.60405 10.909 7.99997C10.909 6.3959 9.60398 5.09088 7.99991 5.09088ZM7.99991 9.45452C7.19788 9.45452 6.54537 8.80201 6.54537 7.99997C6.54537 7.19794 7.19788 6.54543 7.99991 6.54543C8.80195 6.54543 9.45446 7.19794 9.45446 7.99997C9.45446 8.80201 8.80195 9.45452 7.99991 9.45452Z" fill="white"/>
<path d="M15.5058 9.8304L13.8084 8.33867C13.8149 8.22565 13.8182 8.11253 13.8182 8C13.8182 7.88742 13.8149 7.7743 13.8084 7.66128L15.5057 6.1696C15.7661 5.94075 15.8288 5.5599 15.6554 5.25969L14.2009 2.74032C14.0275 2.4401 13.6663 2.3039 13.338 2.41503L11.1978 3.1391C11.0086 3.0144 10.8125 2.90095 10.6107 2.79942L10.1677 0.58463C10.0998 0.244703 9.80127 0 9.4546 0H6.54551C6.19885 0 5.90032 0.244703 5.83235 0.58463L5.38939 2.79942C5.18755 2.90095 4.99148 3.01445 4.80234 3.1391L2.66197 2.41503C2.33373 2.304 1.97247 2.4401 1.79909 2.74032L0.344543 5.25969C0.17121 5.5599 0.233852 5.94075 0.494264 6.1696L2.19162 7.66128C2.18512 7.77416 2.18188 7.88727 2.18188 8C2.18188 8.11273 2.18512 8.22589 2.19167 8.33871L0.494313 9.8304C0.2339 10.0592 0.171258 10.4401 0.344591 10.7403L1.79914 13.2596C1.97252 13.5599 2.33368 13.696 2.66202 13.5849L4.80229 12.8608C4.99143 12.9856 5.18755 13.099 5.38939 13.2005L5.83235 15.4153C5.90032 15.7553 6.19885 16 6.54551 16H9.4546C9.80127 16 10.0998 15.7553 10.1677 15.4154L10.6107 13.2006C10.8125 13.0991 11.0086 12.9856 11.1977 12.8609L13.338 13.585C13.6664 13.696 14.0276 13.56 14.2009 13.2597L15.6555 10.7403C15.8289 10.4401 15.7662 10.0592 15.5058 9.8304ZM13.2395 12.016L11.3133 11.3644C11.0844 11.287 10.8321 11.3283 10.6398 11.4745C10.3461 11.698 10.026 11.8832 9.68845 12.025C9.46595 12.1185 9.30425 12.3162 9.25693 12.5529L8.85839 14.5455H7.14173L6.74323 12.5529C6.69591 12.3163 6.53422 12.1185 6.31172 12.025C5.97397 11.8832 5.65392 11.698 5.3604 11.4746C5.16816 11.3282 4.91584 11.2869 4.68685 11.3644L2.76064 12.016L1.90231 10.5294L3.42925 9.18744C3.61039 9.02827 3.70086 8.78962 3.67075 8.5504C3.64796 8.36911 3.63642 8.18395 3.63642 8C3.63642 7.81605 3.64796 7.63088 3.6708 7.4496C3.70091 7.21033 3.61043 6.97173 3.42929 6.81251L1.90231 5.47059L2.76064 3.9839L4.68689 4.63554C4.91579 4.71292 5.16806 4.67166 5.36035 4.52543C5.65402 4.30196 5.97412 4.11675 6.31172 3.97493C6.53422 3.88145 6.69591 3.68373 6.74323 3.44703L7.14173 1.45455H8.85839L9.25688 3.44708C9.3042 3.68373 9.4659 3.8815 9.6884 3.97498C10.026 4.1168 10.3461 4.30201 10.6397 4.52548C10.832 4.67176 11.0843 4.71307 11.3132 4.63564L13.2393 3.98405L14.0977 5.47069L12.5708 6.81261C12.3897 6.97173 12.2993 7.21018 12.3293 7.44931C12.3521 7.63152 12.3637 7.81682 12.3637 8.00005C12.3637 8.18327 12.3521 8.36858 12.3293 8.55079C12.2993 8.78996 12.3898 9.02841 12.5708 9.18754L14.0978 10.5295L13.2395 12.016Z" fill="white"/>
</svg>
