<svg width="30" height="30" viewBox="0 0 30 30" fill="none" xmlns="http://www.w3.org/2000/svg">
<rect opacity="0.3" x="0.5" y="0.5" width="29" height="29" rx="13.5" stroke="#F1ECF5"/>
<g clip-path="url(#clip0_346:4)">
<path d="M15.8245 15.0068L19.329 11.5022C19.557 11.2743 19.557 10.9057 19.329 10.6778C19.101 10.4498 18.7324 10.4498 18.5045 10.6778L15 14.1823L11.4955 10.6778C11.2675 10.4498 10.899 10.4498 10.671 10.6778C10.443 10.9057 10.443 11.2743 10.671 11.5022L14.1755 15.0068L10.671 18.5113C10.443 18.7393 10.443 19.1078 10.671 19.3358C10.7847 19.4495 10.934 19.5066 11.0833 19.5066C11.2326 19.5066 11.3818 19.4495 11.4955 19.3358L15 15.8312L18.5045 19.3358C18.6182 19.4495 18.7675 19.5066 18.9167 19.5066C19.066 19.5066 19.2153 19.4495 19.329 19.3358C19.557 19.1078 19.557 18.7393 19.329 18.5113L15.8245 15.0068Z" fill="white"/>
</g>
<defs>
<clipPath id="clip0_346:4">
<rect width="9" height="9" fill="white" transform="translate(10.5 10.5)"/>
</clipPath>
</defs>
</svg>
