<svg width="13" height="13" viewBox="0 0 13 13" fill="none" xmlns="http://www.w3.org/2000/svg">
<g clip-path="url(#clip0_27:2543)">
<path d="M7.69101 6.50978L12.753 1.44768C13.0824 1.11841 13.0824 0.586031 12.753 0.256763C12.4237 -0.0725057 11.8913 -0.0725057 11.562 0.256763L6.49994 5.31886L1.43799 0.256763C1.10856 -0.0725057 0.576336 -0.0725057 0.247067 0.256763C-0.0823558 0.586031 -0.0823558 1.11841 0.247067 1.44768L5.30902 6.50978L0.247067 11.5719C-0.0823558 11.9011 -0.0823558 12.4335 0.247067 12.7628C0.411162 12.927 0.626922 13.0096 0.842527 13.0096C1.05813 13.0096 1.27374 12.927 1.43799 12.7628L6.49994 7.7007L11.562 12.7628C11.7263 12.927 11.9419 13.0096 12.1575 13.0096C12.3731 13.0096 12.5887 12.927 12.753 12.7628C13.0824 12.4335 13.0824 11.9011 12.753 11.5719L7.69101 6.50978Z" fill="white"/>
</g>
<defs>
<clipPath id="clip0_27:2543">
<rect width="13" height="13" fill="white"/>
</clipPath>
</defs>
</svg>
