<svg width="25" height="25" viewBox="0 0 25 25" fill="none" xmlns="http://www.w3.org/2000/svg">
<path d="M5.2088 2.08337C3.4954 2.08337 2.0835 3.49503 2.0835 5.2083V13.5416C2.0835 15.2549 3.4954 16.6667 5.2088 16.6667H8.33614V19.7937C8.33614 21.5069 9.74401 22.9167 11.4574 22.9167H19.7956C21.509 22.9167 22.9168 21.5069 22.9168 19.7937V11.4584C22.9168 9.74517 21.509 8.33743 19.7956 8.33743H16.6683V5.2083C16.6683 3.49503 15.2563 2.08337 13.5429 2.08337H5.2088ZM5.2088 4.16662H13.5429C14.138 4.16662 14.5847 4.61326 14.5847 5.2083V8.33743H11.4574C9.74401 8.33743 8.33614 9.74517 8.33614 11.4584V14.5833H5.2088C4.61371 14.5833 4.16703 14.1367 4.16703 13.5416V5.2083C4.16703 4.61326 4.61371 4.16662 5.2088 4.16662ZM11.4574 10.4126H19.7956C20.3907 10.4126 20.8333 10.8633 20.8333 11.4584V19.7937C20.8333 20.3887 20.3907 20.8333 19.7956 20.8333H11.4574C10.8623 20.8333 10.4197 20.3887 10.4197 19.7937V11.4584C10.4197 10.8633 10.8623 10.4128 11.4574 10.4128V10.4126Z" fill="white"/>
</svg>
