<svg width="54" height="54" viewBox="0 0 54 54" fill="none" xmlns="http://www.w3.org/2000/svg">
<path d="M54 12.7617V8.01562C54 5.39852 51.871 3.26953 49.2539 3.26953H11.0742C8.45712 3.26953 6.32812 5.39852 6.32812 8.01562V12.7617L9.72527 15.9258H10.5246L6.32812 19.0898H4.74609C2.12899 19.0898 0 21.2188 0 23.8359V45.9844C0 48.6015 2.12899 50.7305 4.74609 50.7305H42.9258C45.5429 50.7305 47.6719 48.6015 47.6719 45.9844V34.9102L50.8359 32.1125V20.6719C50.8359 18.0548 48.7069 15.9258 46.0898 15.9258H49.3039L54 12.7617Z" fill="url(#paint0_linear_25:1291)"/>
<path d="M7.91016 28.582H17.5078C18.3823 28.582 19.0898 27.8744 19.0898 27C19.0898 26.1256 18.3823 25.418 17.5078 25.418H7.91016C7.03571 25.418 6.32812 26.1256 6.32812 27C6.32812 27.8744 7.03571 28.582 7.91016 28.582ZM23.8359 31.7461H7.91016C7.03571 31.7461 6.32812 32.4537 6.32812 33.3281C6.32812 34.2026 7.03571 34.9102 7.91016 34.9102H23.8359C24.7104 34.9102 25.418 34.2026 25.418 33.3281C25.418 32.4537 24.7104 31.7461 23.8359 31.7461ZM6.32812 12.7617V19.0898H42.9258C45.5429 19.0898 47.6719 21.2188 47.6719 23.8359V34.9102H49.2539C51.871 34.9102 54 32.7812 54 30.1641V12.7617H6.32812Z" fill="url(#paint1_linear_25:1291)"/>
<defs>
<linearGradient id="paint0_linear_25:1291" x1="27" y1="50.7305" x2="27" y2="3.26953" gradientUnits="userSpaceOnUse">
<stop stop-color="#A93AFF"/>
<stop offset="1" stop-color="#FF81FF"/>
</linearGradient>
<linearGradient id="paint1_linear_25:1291" x1="30.1641" y1="42.7353" x2="30.1641" y2="11.5131" gradientUnits="userSpaceOnUse">
<stop stop-color="#FFBEF9"/>
<stop offset="1" stop-color="#FFF1FF"/>
</linearGradient>
</defs>
</svg>
