<svg width="14" height="14" viewBox="0 0 14 14" fill="none" xmlns="http://www.w3.org/2000/svg">
<g clip-path="url(#clip0_25:463)">
<path d="M13.8807 3.36638C14.2298 3.01636 13.7871 2.00563 12.8901 1.1089C12.0037 0.222552 11.0093 -0.218075 10.6477 0.109549L10.6407 0.1028L5.67227 4.56513C4.75369 3.7645 3.36462 3.79182 2.4896 4.66621C2.34234 4.8137 2.25934 5.01359 2.25934 5.22212C2.25934 5.43068 2.34231 5.63063 2.4896 5.77787L4.74359 8.03166L0.1116 13.2601C-0.0356379 13.426 -0.0388984 13.6792 0.112029 13.8493C0.27474 14.0324 0.555259 14.0493 0.738849 13.8863L5.96068 9.24903L6.18491 9.47295L7.34614 10.6342L8.21378 11.5017C8.36108 11.6489 8.56097 11.7316 8.76933 11.7316C8.97749 11.7316 9.17752 11.6487 9.32473 11.5012C10.1988 10.6268 10.2264 9.23719 9.42595 8.31876L13.8649 3.37567C13.8694 3.37172 13.8766 3.37084 13.8807 3.36638Z" fill="#472E75"/>
</g>
<defs>
<clipPath id="clip0_25:463">
<rect width="14" height="14" fill="white"/>
</clipPath>
</defs>
</svg>
