<svg width="27" height="27" viewBox="0 0 27 27" fill="none" xmlns="http://www.w3.org/2000/svg">
<path d="M23.066 3.93354C22.4139 3.27181 21.5834 2.81397 20.6757 2.61577C19.7681 2.41758 18.8223 2.48758 17.9537 2.81726L5.66284 7.38279C4.76723 7.71543 3.98997 8.30544 3.42879 9.07864C2.8676 9.85183 2.54754 10.7737 2.50886 11.7283C2.47017 12.6829 2.71459 13.6276 3.21137 14.4437C3.70815 15.2597 4.43512 15.9107 5.30087 16.3147L7.93084 17.5424C8.60293 17.8563 9.14322 18.3966 9.45718 19.0687L10.6848 21.6995C11.0661 22.539 11.6826 23.25 12.4597 23.7463C13.2368 24.2425 14.1411 24.5029 15.0631 24.4957H15.2723C16.2294 24.4668 17.1556 24.1505 17.9304 23.588C18.7052 23.0255 19.2929 22.2428 19.6168 21.3418L24.1823 9.05088C24.5127 8.18156 24.5831 7.23489 24.3849 6.32626C24.1867 5.41763 23.7285 4.58628 23.066 3.93354Z" fill="url(#paint0_linear_10:2311)"/>
<linearGradient id="paint0_linear_10:2311" x1="3.25455" y1="3.87989" x2="26.7539" y2="6.89582" gradientUnits="userSpaceOnUse">
<stop stop-color="#8253E9"/>
<stop offset="1" stop-color="#5A5FEC"/>
</linearGradient>
</svg>
