<svg width="20" height="20" fill="none" xmlns="http://www.w3.org/2000/svg"><g clip-path="url(#clip0_10:2419)"><path d="M19.023 7.45a.977.977 0 00-.976.976v5.332a1.83 1.83 0 01-1.828 1.828H3.78a1.83 1.83 0 01-1.828-1.828V5.53l6.617 6.164a2.104 2.104 0 002.86 0L19.69 4a.973.973 0 00-.668-1.688H.977A.97.97 0 000 3.285v10.469a3.784 3.784 0 003.781 3.781H16.22A3.784 3.784 0 0020 13.754V8.426a.974.974 0 00-.977-.977zm-2.48-3.188l-6.445 6.004a.144.144 0 01-.196 0L3.457 4.262h13.086z" fill="#fff"/></g><defs><clipPath id="clip0_10:2419"><path fill="#fff" d="M0 0h20v20H0z"/></clipPath></defs></svg>