<svg width="21" height="21" fill="none" xmlns="http://www.w3.org/2000/svg"><g clip-path="url(#clip0_10:2474)"><path d="M18.775 8.88c2.173-2.943 1.69-2.998 2.225-3.917h-4.164s-.296 1.027-.386 1.211c-.8 1.627-2.594 4.068-3.68 4.317-1.068.246-.926-2.279-.86-3.372.062-1.014.051-1.369.022-1.544a.588.588 0 00-.516-.475 15.32 15.32 0 00-2.574-.112l-.966.032c.381.851.638.59.778 1.575.159 1.154.096 3.96-1.04 3.96-1.82 0-3.865-5.469-3.93-5.592H0l.337.843c2.717 6.802 6.115 9.952 10.764 10.214l.605.017.043-.587c.065-.908.52-2.214 1.328-2.214 1.193 0 1.537.348 2.324 1.32.756.932 1.278 1.481 2.498 1.481H21l-.442-.89c-.69-1.386-2.076-2.574-2.617-3.263-.196-.26-.389-.67-.189-1.167.163-.432.65-1.333 1.023-1.838z" fill="#fff"/></g><defs><clipPath id="clip0_10:2474"><path fill="#fff" d="M0 0h21v21H0z"/></clipPath></defs></svg>