<svg width="8" height="8" fill="none" xmlns="http://www.w3.org/2000/svg"><g clip-path="url(#clip0_31:8950)"><path d="M4.312 6.222l3.56-3.56A.434.434 0 008 2.352a.434.434 0 00-.128-.309l-.262-.262a.438.438 0 00-.619 0l-2.99 2.99L1.01 1.778a.435.435 0 00-.619 0l-.262.262A.435.435 0 000 2.35a.43.43 0 00.128.309L3.69 6.222A.435.435 0 004 6.35a.435.435 0 00.311-.128z" fill="#fff"/></g><defs><clipPath id="clip0_31:8950"><path fill="#fff" transform="rotate(90 4 4)" d="M0 0h8v8H0z"/></clipPath></defs></svg>